<svg width="155" height="30" viewBox="0 0 155 30" fill="none" xmlns="http://www.w3.org/2000/svg">
<g clip-path="url(#clip0_2018_4358)">
<path d="M34.2499 20.9215L22.5535 2.705C20.2329 -0.909682 14.9571 -0.909682 12.6365 2.705L0.946287 20.9215C-1.57341 24.841 1.24492 29.9986 5.90481 29.9986C7.21132 29.9986 8.46806 29.476 9.39506 28.5553L17.595 20.3554L25.7949 28.5553C26.7219 29.4823 27.9786 29.9986 29.2852 29.9986C33.945 29.9986 36.7634 24.8473 34.2437 20.9215H34.2499Z" fill="url(#paint0_linear_2018_4358)"/>
<path style="mix-blend-mode:multiply" opacity="0.5" d="M0.945799 20.9229C-1.5739 24.8424 1.24443 30 5.90432 30C7.21083 30 8.46758 29.4774 9.39458 28.5566L17.5945 20.3567C17.5945 20.3567 9.83008 11.8084 0.945799 20.9291V20.9229Z" fill="url(#paint1_linear_2018_4358)"/>
<path d="M42.4118 21.444C41.4786 21.444 40.676 21.2947 39.9979 20.9961C39.3197 20.6974 38.7971 20.2682 38.4363 19.7082C38.0754 19.1483 37.895 18.4826 37.895 17.7111C37.895 16.9832 38.063 16.3424 38.3927 15.7825C38.7225 15.2225 39.2326 14.7559 39.917 14.3764C40.6014 13.9969 41.4599 13.7294 42.4803 13.5738L46.4309 12.933V15.5336L43.1211 16.1247C42.6171 16.218 42.2314 16.3797 41.9639 16.6099C41.6963 16.8401 41.5595 17.1636 41.5595 17.5929C41.5595 17.9849 41.7088 18.296 42.0074 18.5137C42.3061 18.7315 42.6793 18.8434 43.1211 18.8434C43.7059 18.8434 44.216 18.719 44.6578 18.4639C45.0995 18.2151 45.4417 17.8667 45.6843 17.4374C45.927 17.0019 46.0514 16.5291 46.0514 16.0064V12.6468C46.0514 12.1616 45.8585 11.751 45.4728 11.415C45.0871 11.0853 44.5645 10.9173 43.8988 10.9173C43.2331 10.9173 42.7104 11.0915 42.2314 11.4399C41.7523 11.7883 41.3977 12.2424 41.18 12.8086L38.343 11.4585C38.5918 10.7306 38.9962 10.1085 39.5499 9.5921C40.1036 9.06949 40.7631 8.67132 41.5346 8.38513C42.3061 8.09894 43.1522 7.96207 44.0667 7.96207C45.1555 7.96207 46.1136 8.16115 46.9535 8.55311C47.7872 8.94506 48.4404 9.49255 48.9008 10.1956C49.3674 10.8986 49.5976 11.7136 49.5976 12.6406V21.1516H46.2878V19.0736L47.0904 18.9305C46.7109 19.4967 46.294 19.9695 45.8399 20.3366C45.3857 20.7099 44.8693 20.9836 44.3031 21.1641C43.737 21.3445 43.1024 21.4378 42.4118 21.4378V21.444Z" fill="black"/>
<path d="M51.4951 25.8924V8.25449H54.8049V10.712L54.5001 10.0027C54.9232 9.35569 55.5018 8.85797 56.2359 8.50334C56.97 8.14872 57.8099 7.97452 58.7556 7.97452C59.9874 7.97452 61.0949 8.27315 62.0903 8.87041C63.0857 9.46767 63.8697 10.2765 64.4545 11.2906C65.0393 12.3047 65.3317 13.4432 65.3317 14.7062C65.3317 15.9691 65.0455 17.089 64.4669 18.1093C63.8883 19.1359 63.1044 19.9447 62.1152 20.5419C61.1198 21.1392 59.9937 21.4378 58.7369 21.4378C57.8535 21.4378 57.0385 21.276 56.2919 20.9525C55.5453 20.629 54.9418 20.15 54.4814 19.5216L55.0476 18.7875V25.8799H51.5013L51.4951 25.8924ZM58.3014 18.2524C58.9609 18.2524 59.5457 18.1031 60.0497 17.8045C60.5536 17.5058 60.9456 17.089 61.2317 16.5539C61.5179 16.0189 61.6548 15.403 61.6548 14.7124C61.6548 14.0218 61.5117 13.4059 61.2317 12.8833C60.9456 12.3544 60.5536 11.9376 60.0497 11.6327C59.5457 11.3279 58.9609 11.1724 58.3014 11.1724C57.6419 11.1724 57.1069 11.3217 56.6092 11.6203C56.1115 11.9189 55.7257 12.3358 55.452 12.8708C55.1782 13.4059 55.0351 14.0218 55.0351 14.7124C55.0351 15.403 55.172 16.0189 55.452 16.5539C55.7257 17.089 56.1115 17.5058 56.6092 17.8045C57.1069 18.1031 57.6668 18.2524 58.3014 18.2524Z" fill="black"/>
<path d="M66.6943 25.8924V8.25449H70.0042V10.712L69.6993 10.0027C70.1224 9.35569 70.7072 8.85797 71.4351 8.50334C72.1692 8.14872 73.0091 7.97452 73.9548 7.97452C75.1867 7.97452 76.2941 8.27315 77.2895 8.87041C78.285 9.46767 79.0689 10.2765 79.6537 11.2906C80.2385 12.3047 80.5309 13.4432 80.5309 14.7062C80.5309 15.9691 80.2447 17.089 79.6661 18.1093C79.0938 19.1359 78.3098 19.9447 77.3144 20.5419C76.319 21.1392 75.1929 21.4378 73.9361 21.4378C73.0527 21.4378 72.2377 21.276 71.4911 20.9525C70.7445 20.629 70.141 20.15 69.6807 19.5216L70.2468 18.7875V25.8799H66.7006L66.6943 25.8924ZM73.5006 18.2524C74.1601 18.2524 74.7449 18.1031 75.2489 17.8045C75.7528 17.5058 76.1448 17.089 76.431 16.5539C76.7171 16.0189 76.854 15.403 76.854 14.7124C76.854 14.0218 76.7109 13.4059 76.431 12.8833C76.1448 12.3544 75.7528 11.9376 75.2489 11.6327C74.7449 11.3279 74.1601 11.1724 73.5006 11.1724C72.8412 11.1724 72.3061 11.3217 71.8084 11.6203C71.3107 11.9189 70.9249 12.3358 70.6512 12.8708C70.3775 13.4059 70.2344 14.0218 70.2344 14.7124C70.2344 15.403 70.3712 16.0189 70.6512 16.5539C70.9249 17.089 71.3107 17.5058 71.8084 17.8045C72.3061 18.1031 72.8661 18.2524 73.5006 18.2524Z" fill="black"/>
<path d="M86.9514 21.444C85.5329 21.444 84.301 21.1081 83.2496 20.4361C82.1981 19.7642 81.4889 18.8621 81.1094 17.7298L83.71 16.4979C84.0397 17.1885 84.4876 17.736 85.06 18.128C85.6324 18.5199 86.2608 18.719 86.9514 18.719C87.4553 18.719 87.841 18.6195 88.1085 18.4142C88.3761 18.2088 88.513 17.9289 88.513 17.5618C88.513 17.3752 88.4632 17.2134 88.3699 17.0765C88.2765 16.9459 88.1334 16.8215 87.9468 16.7095C87.7601 16.5975 87.5237 16.5042 87.2375 16.4233L85.0414 15.8074C83.9837 15.5087 83.1749 15.0234 82.6088 14.3515C82.0426 13.6796 81.7564 12.8895 81.7564 11.9749C81.7564 11.1723 81.9617 10.4693 82.3723 9.87206C82.783 9.2748 83.3553 8.80196 84.0957 8.466C84.836 8.13004 85.6884 7.95584 86.6465 7.95584C87.9095 7.95584 89.0169 8.25447 89.9688 8.84551C90.9207 9.43655 91.5988 10.2702 91.9908 11.3403L89.3653 12.5722C89.1786 12.0371 88.8365 11.6079 88.3388 11.2843C87.841 10.9608 87.2811 10.7991 86.6465 10.7991C86.1923 10.7991 85.8315 10.8924 85.5702 11.0852C85.3089 11.2781 85.1782 11.5332 85.1782 11.8629C85.1782 12.0371 85.228 12.1927 85.3213 12.3358C85.4146 12.4789 85.5702 12.6033 85.7817 12.7153C85.9932 12.8273 86.2608 12.9268 86.5718 13.0201L88.6312 13.6361C89.7013 13.9534 90.5225 14.4262 91.0886 15.067C91.6548 15.7078 91.941 16.4917 91.941 17.4187C91.941 18.2213 91.7295 18.9243 91.3126 19.5216C90.8958 20.1188 90.3172 20.5917 89.5768 20.9276C88.8365 21.2636 87.9592 21.4378 86.9514 21.4378V21.444Z" fill="black"/>
<path d="M98.4177 21.444C96.9992 21.444 95.7673 21.1081 94.7159 20.4361C93.6644 19.7642 92.9552 18.8621 92.5757 17.7298L95.1763 16.4979C95.506 17.1885 95.9539 17.736 96.5263 18.128C97.0987 18.5199 97.7271 18.719 98.4177 18.719C98.9216 18.719 99.3073 18.6195 99.5749 18.4142C99.8424 18.2088 99.9792 17.9289 99.9792 17.5618C99.9792 17.3752 99.9295 17.2134 99.8362 17.0765C99.7428 16.9459 99.5997 16.8215 99.4131 16.7095C99.2264 16.5975 98.99 16.5042 98.7038 16.4233L96.5077 15.8074C95.45 15.5087 94.6412 15.0234 94.0751 14.3515C93.5089 13.6796 93.2227 12.8895 93.2227 11.9749C93.2227 11.1723 93.428 10.4693 93.8386 9.87206C94.2493 9.2748 94.8216 8.80196 95.562 8.466C96.3024 8.13004 97.1547 7.95584 98.1128 7.95584C99.3758 7.95584 100.483 8.25447 101.435 8.84551C102.387 9.43655 103.065 10.2702 103.457 11.3403L100.832 12.5722C100.645 12.0371 100.303 11.6079 99.805 11.2843C99.3073 10.9608 98.7474 10.7991 98.1128 10.7991C97.6586 10.7991 97.2978 10.8924 97.0365 11.0852C96.7752 11.2781 96.6445 11.5332 96.6445 11.8629C96.6445 12.0371 96.6943 12.1927 96.7876 12.3358C96.881 12.4789 97.0365 12.6033 97.248 12.7153C97.4595 12.8273 97.7271 12.9268 98.0381 13.0201L100.097 13.6361C101.168 13.9534 101.989 14.4262 102.555 15.067C103.121 15.7078 103.407 16.4917 103.407 17.4187C103.407 18.2213 103.196 18.9243 102.779 19.5216C102.362 20.1188 101.783 20.5917 101.043 20.9276C100.303 21.2636 99.4255 21.4378 98.4177 21.4378V21.444Z" fill="black"/>
<path d="M111.166 21.444C109.872 21.444 108.708 21.1454 107.675 20.5544C106.643 19.9633 105.821 19.1545 105.218 18.1342C104.608 17.1076 104.31 15.9567 104.31 14.6813C104.31 13.4059 104.608 12.2549 105.205 11.2408C105.803 10.2267 106.624 9.42412 107.663 8.8393C108.702 8.25448 109.872 7.96207 111.159 7.96207C112.118 7.96207 113.013 8.13005 113.828 8.45979C114.65 8.78952 115.346 9.24991 115.931 9.84095C116.516 10.432 116.933 11.1288 117.182 11.9314L114.108 13.2566C113.884 12.6095 113.511 12.0994 112.982 11.7198C112.453 11.3403 111.844 11.1537 111.153 11.1537C110.537 11.1537 109.99 11.303 109.511 11.6016C109.032 11.9003 108.652 12.3171 108.378 12.8522C108.105 13.3872 107.962 14.0031 107.962 14.6937C107.962 15.3843 108.098 16.0002 108.378 16.5353C108.652 17.0703 109.032 17.4872 109.511 17.7858C109.99 18.0844 110.537 18.2337 111.153 18.2337C111.862 18.2337 112.478 18.0471 112.995 17.6676C113.511 17.2881 113.884 16.7779 114.108 16.1309L117.182 17.4809C116.945 18.24 116.535 18.9181 115.95 19.5154C115.365 20.1126 114.662 20.5855 113.847 20.9214C113.026 21.2574 112.13 21.4316 111.153 21.4316L111.166 21.444Z" fill="black"/>
<path d="M124.971 21.444C123.695 21.444 122.532 21.1516 121.487 20.5668C120.435 19.982 119.602 19.1856 118.98 18.1653C118.357 17.1512 118.046 15.994 118.046 14.6999C118.046 13.4059 118.357 12.2362 118.98 11.2221C119.602 10.2142 120.435 9.41789 121.487 8.83307C122.532 8.24825 123.695 7.95584 124.971 7.95584C126.246 7.95584 127.404 8.24825 128.449 8.83307C129.488 9.41789 130.321 10.2142 130.944 11.2221C131.566 12.23 131.877 13.3872 131.877 14.6999C131.877 16.0127 131.566 17.145 130.944 18.1653C130.321 19.1794 129.488 19.982 128.449 20.5668C127.41 21.1516 126.253 21.444 124.971 21.444ZM124.971 18.2524C125.618 18.2524 126.178 18.1031 126.663 17.8045C127.142 17.5058 127.522 17.089 127.795 16.5539C128.069 16.0189 128.212 15.403 128.212 14.7124C128.212 14.0218 128.075 13.4059 127.795 12.8833C127.522 12.3544 127.142 11.9376 126.663 11.6327C126.184 11.3279 125.618 11.1723 124.971 11.1723C124.324 11.1723 123.758 11.3279 123.266 11.6327C122.775 11.9376 122.395 12.3607 122.121 12.8833C121.848 13.4121 121.705 14.0218 121.705 14.7124C121.705 15.403 121.841 16.0189 122.121 16.5539C122.395 17.089 122.781 17.5058 123.266 17.8045C123.751 18.1031 124.324 18.2524 124.971 18.2524Z" fill="black"/>
<path d="M133.246 21.1641V8.25449H136.555V11.3528L136.319 10.9048C136.605 9.81608 137.072 9.08194 137.725 8.69621C138.378 8.31048 139.156 8.11761 140.052 8.11761H140.811V11.191H139.697C138.832 11.191 138.129 11.4523 137.594 11.9812C137.059 12.51 136.792 13.2566 136.792 14.2147V21.1641H133.246Z" fill="black"/>
<path d="M147.878 21.444C146.51 21.444 145.315 21.1392 144.307 20.5357C143.299 19.926 142.516 19.111 141.968 18.0906C141.414 17.0641 141.141 15.9318 141.141 14.6875C141.141 13.4432 141.427 12.2425 142.005 11.2346C142.578 10.2267 143.355 9.43034 144.332 8.84552C145.309 8.2607 146.41 7.96829 147.642 7.96829C148.669 7.96829 149.571 8.13005 150.361 8.45357C151.151 8.77709 151.817 9.23125 152.358 9.80985C152.899 10.3947 153.316 11.0666 153.602 11.8318C153.888 12.5971 154.025 13.4308 154.025 14.3266C154.025 14.5817 154.013 14.8244 153.988 15.0732C153.963 15.3159 153.92 15.5274 153.857 15.7016H144.189V13.101H151.848L150.168 14.3329C150.324 13.6547 150.317 13.0512 150.143 12.5224C149.969 11.9936 149.664 11.5768 149.235 11.2719C148.799 10.967 148.27 10.8115 147.642 10.8115C147.014 10.8115 146.497 10.9608 146.056 11.2595C145.614 11.5581 145.284 11.9998 145.06 12.5846C144.842 13.1695 144.755 13.8787 144.799 14.7124C144.737 15.4403 144.824 16.0749 145.06 16.6286C145.297 17.1823 145.657 17.6116 146.149 17.9164C146.64 18.2213 147.231 18.3768 147.922 18.3768C148.55 18.3768 149.092 18.2524 149.54 17.9973C149.988 17.7422 150.342 17.4001 150.591 16.9583L153.428 18.3084C153.173 18.9368 152.781 19.4905 152.234 19.9633C151.692 20.4361 151.045 20.8032 150.305 21.0645C149.565 21.3258 148.749 21.4565 147.872 21.4565L147.878 21.444Z" fill="black"/>
</g>
<defs>
<linearGradient id="paint0_linear_2018_4358" x1="66.9376" y1="14.8929" x2="4.46142" y2="15.0795" gradientUnits="userSpaceOnUse">
<stop stop-color="#FFA800"/>
<stop offset="0.5" stop-color="#FF9A23"/>
<stop offset="1" stop-color="#FF7A00"/>
</linearGradient>
<linearGradient id="paint1_linear_2018_4358" x1="14.9068" y1="7.79552" x2="3.21042" y2="34.2431" gradientUnits="userSpaceOnUse">
<stop stop-color="#C90012"/>
<stop offset="0.333333" stop-color="#DC6969"/>
<stop offset="0.666667" stop-color="#F0E1E1"/>
<stop offset="1" stop-color="white"/>
</linearGradient>
<clipPath id="clip0_2018_4358">
<rect width="154.025" height="30" fill="white"/>
</clipPath>
</defs>
</svg>
